<svg xmlns="http://www.w3.org/2000/svg" width="935" height="935" viewBox="0 0 935 935" version="1.1"><path d="M 416.500 15.602 C 413.750 15.805, 404.075 16.444, 395 17.023 C 310.420 22.417, 225.952 42.422, 177 68.653 C 147.034 84.710, 125.673 105.368, 119.982 123.793 C 117.636 131.390, 117.206 143.309, 119.031 150.166 C 122.121 161.772, 132.643 176.494, 145.155 186.718 C 190.343 223.640, 275.412 249.061, 386 258.688 C 411.700 260.926, 501.392 261.265, 525.500 259.216 C 616.771 251.459, 686.529 235.084, 736.500 209.689 C 764.265 195.578, 785.635 177.510, 793.739 161.294 C 798.693 151.381, 800.431 143.694, 799.697 134.935 C 797.614 110.064, 775.990 86.836, 736.067 66.588 C 686.359 41.378, 617.811 25.026, 530 17.433 C 512.703 15.937, 430.057 14.604, 416.500 15.602 M 421.500 49.670 C 311.281 55.039, 226.655 77.237, 197.042 108.549 C 183.409 122.964, 183.463 139.093, 197.193 153.611 C 232.033 190.448, 348.542 215.207, 475 212.647 C 604.855 210.017, 706.185 182.391, 727.572 143.785 C 730.079 139.259, 730.500 137.422, 730.500 131 C 730.500 124.547, 730.081 122.738, 727.500 118.041 C 708.191 82.902, 619.863 56.196, 502.500 50.012 C 485.478 49.115, 437.097 48.911, 421.500 49.670 M 273 437.599 C 249.795 441.873, 236.243 448.389, 225.018 460.671 C 209.898 477.214, 205.839 503.867, 215.322 524.328 C 222.267 539.311, 235.195 550.792, 258.458 562.631 C 285.751 576.522, 293.231 581.713, 296.912 589.318 C 299.390 594.436, 299.716 603.715, 297.565 607.875 C 295.052 612.734, 288.463 617.807, 282.291 619.635 C 274.238 622.021, 258.068 621.753, 247.500 619.059 C 238.084 616.659, 223.652 609.730, 216.250 604.055 L 211 600.031 211 623.578 L 211 647.125 217.342 650.001 C 242.873 661.577, 286.111 661.964, 312.465 650.853 C 330.714 643.158, 343.821 628.510, 348.123 611 C 350.268 602.271, 349.839 585.837, 347.247 577.458 C 341.503 558.888, 328.143 546.820, 294.500 529.815 C 266.764 515.795, 261.798 511.126, 261.159 498.472 C 260.700 489.393, 262.565 485.061, 268.917 480.450 C 275.496 475.673, 280.680 474.475, 294 474.655 C 307.929 474.843, 317.798 477.191, 330 483.220 C 334.675 485.530, 338.846 487.591, 339.270 487.800 C 339.693 488.009, 339.918 478.397, 339.770 466.440 L 339.500 444.700 335.500 443.267 C 324.912 439.472, 313.497 437.868, 294.500 437.503 C 284.050 437.303, 274.375 437.346, 273 437.599 M 460.500 438.046 C 414.429 445.166, 381.932 477.993, 373.391 526.039 C 371.118 538.822, 371.104 561.644, 373.362 573.248 C 377.953 596.845, 387.036 615.027, 401.487 629.545 C 417.595 645.728, 440.489 656.338, 464.194 658.605 L 471.500 659.304 493.500 684.136 L 515.500 708.967 546.250 708.983 C 563.163 708.993, 577 708.847, 577 708.660 C 577 708.473, 563.257 695.603, 546.460 680.061 L 515.919 651.801 525.871 646.919 C 546.421 636.837, 560.153 622.622, 570.539 600.678 C 585.414 569.249, 585.471 524.835, 570.674 493.600 C 557.278 465.320, 536.659 448.029, 507.119 440.302 C 499.306 438.259, 494.590 437.724, 482 437.453 C 473.475 437.269, 463.800 437.536, 460.500 438.046 M 618 547.500 L 618 655 682 655 L 746 655 746 636 L 746 617 706 617 L 666 617 666 528.500 L 666 440 642 440 L 618 440 618 547.500 M 464 479.591 C 442.729 485.237, 427.971 503.185, 423.469 528.881 C 418.649 556.387, 424.822 585.565, 438.739 601.059 C 450.963 614.669, 469.407 620.552, 487.668 616.667 C 509.821 611.953, 524.357 595.679, 529.622 569.695 C 531.721 559.336, 531.082 531.709, 528.519 522 C 522.500 499.202, 507.645 483, 489.201 479.116 C 482.023 477.604, 470.680 477.818, 464 479.591" stroke="none" fill="#ffffff" fill-rule="evenodd"/><path d="M 441.250 14.735 C 443.863 14.941, 448.137 14.941, 450.750 14.735 C 453.363 14.529, 451.225 14.360, 446 14.360 C 440.775 14.360, 438.637 14.529, 441.250 14.735 M 469.728 14.722 C 471.503 14.943, 474.653 14.946, 476.728 14.730 C 478.802 14.513, 477.350 14.333, 473.500 14.328 C 469.650 14.324, 467.952 14.501, 469.728 14.722 M 798.718 150.180 C 798.288 152.204, 796.392 156.929, 794.505 160.680 C 772.727 203.970, 686.514 240.401, 571.500 254.914 C 539.272 258.981, 495.393 261.942, 466.750 261.982 L 454 262 454 350.607 C 454 428.929, 454.174 439.147, 455.499 438.639 C 460.317 436.790, 479.611 435.824, 489.996 436.911 C 514.619 439.489, 533.968 448.049, 549.859 463.394 C 559.181 472.395, 564.864 480.330, 570.453 492.148 C 578.766 509.724, 582.003 525.057, 581.996 546.822 C 581.988 572.880, 575.585 596.178, 563.344 614.692 C 554.099 628.674, 537.891 642.421, 523.379 648.589 C 519.839 650.094, 517.067 651.652, 517.221 652.053 C 517.374 652.453, 531 665.264, 547.500 680.521 C 564 695.778, 577.650 708.653, 577.833 709.131 C 578.018 709.612, 564.290 710, 547.117 710 L 516.067 710 493.461 684.643 L 470.856 659.285 463.133 658.690 C 458.885 658.362, 454.754 657.922, 453.954 657.711 C 453.154 657.500, 452.838 657.517, 453.250 657.747 C 453.663 657.978, 454 717.079, 454 789.083 L 454 920 462.250 919.979 C 504.602 919.873, 562.020 915.020, 603.354 908.052 C 707.999 890.413, 780.251 854.781, 797.108 812.500 L 799.500 806.500 799.758 542.500 C 800.057 237.378, 799.812 145.033, 798.718 150.180 M 426.280 261.736 C 428.909 261.943, 432.959 261.940, 435.280 261.731 C 437.601 261.521, 435.450 261.352, 430.500 261.355 C 425.550 261.358, 423.651 261.530, 426.280 261.736 M 284.292 436.742 C 288.027 436.935, 293.877 436.934, 297.292 436.739 C 300.706 436.545, 297.650 436.387, 290.500 436.389 C 283.350 436.390, 280.556 436.550, 284.292 436.742 M 618 548 L 618 656 682 656 L 746 656 746 636 L 746 616 706.500 616 L 667 616 667 528 L 667 440 642.500 440 L 618 440 618 548 M 468.763 478.975 C 466.158 479.446, 461.771 480.580, 459.013 481.496 L 454 483.161 454 547.986 L 454 612.812 458.750 614.498 C 465.193 616.785, 480.377 617.579, 488.225 616.039 C 497.872 614.147, 504.681 610.361, 512.537 602.522 C 520.463 594.612, 524.744 586.902, 528.181 574.342 C 531.332 562.826, 531.353 535.338, 528.221 522.766 C 522.934 501.543, 510.722 486.347, 494.751 481.117 C 487.479 478.735, 475.544 477.751, 468.763 478.975 M 422.300 554 C 422.300 557.025, 422.487 558.263, 422.716 556.750 C 422.945 555.237, 422.945 552.763, 422.716 551.250 C 422.487 549.737, 422.300 550.975, 422.300 554 M 210.231 623.750 L 210.463 648.500 210.749 624.143 C 211.019 601.208, 211.137 599.864, 212.768 601.143 C 214.334 602.370, 214.368 602.332, 213.128 600.750 C 212.373 599.788, 211.360 599, 210.878 599 C 210.392 599, 210.103 610.043, 210.231 623.750 M 261.784 659.738 C 264.689 659.941, 269.189 659.939, 271.784 659.734 C 274.378 659.528, 272 659.363, 266.500 659.365 C 261 659.368, 258.878 659.536, 261.784 659.738" stroke="none" fill="#2687cf" fill-rule="evenodd"/><path d="M 800.494 470 C 800.494 650.125, 800.609 723.813, 800.750 633.750 C 800.891 543.688, 800.891 396.313, 800.750 306.250 C 800.609 216.188, 800.494 289.875, 800.494 470 M 117.043 473 C 117.034 833.387, 116.539 806.656, 123.461 819.757 C 152.330 874.399, 277.053 914.738, 432.250 919.627 L 454 920.313 454 789.175 L 454 658.038 451.250 657.432 C 432.820 653.368, 415.647 644.410, 402.688 632.099 C 387.296 617.476, 376.490 596.344, 372.419 572.901 C 371.159 565.645, 370.896 559.393, 371.267 545.500 C 371.691 529.622, 372.105 526.126, 374.781 515.845 C 383.056 484.054, 400.919 461.023, 427.743 447.561 C 435.378 443.729, 448.737 439, 451.926 439 L 454 439 454 350.660 L 454 262.320 430.750 261.668 C 297.973 257.950, 182.724 226.068, 137.500 180.546 C 127.699 170.680, 122.747 163.207, 119.287 153.058 L 117.052 146.500 117.043 473 M 269.466 437.377 C 239.407 442.311, 217.662 459.809, 211.374 484.124 C 209.436 491.621, 209.202 507.217, 210.920 514.500 C 213.145 523.936, 218.873 533.776, 226.944 542.033 C 235.818 551.110, 243.572 556.297, 262 565.482 C 287.704 578.294, 296.771 585.910, 298.393 596.055 C 299.917 605.590, 293.488 614.932, 282.852 618.635 C 275.766 621.102, 258.433 621.063, 248.500 618.558 C 239.282 616.233, 225.039 609.437, 217.247 603.647 C 213.808 601.091, 210.771 599, 210.497 599 C 210.224 599, 210 609.964, 210 623.363 L 210 647.727 215.750 650.275 C 223.383 653.658, 232.823 656.463, 242 658.073 C 253.247 660.047, 281.473 659.809, 292.372 657.649 C 327.097 650.764, 346.669 632.326, 349.955 603.403 C 352.205 583.604, 347.517 568.528, 335.111 555.661 C 326.420 546.648, 315.526 539.492, 293 527.998 C 277.964 520.326, 273.444 517.512, 268.860 512.970 C 264.031 508.183, 263.053 506.573, 262.054 501.758 C 261.169 497.496, 261.166 495.098, 262.041 491.847 C 263.499 486.432, 264.802 484.592, 269.751 480.952 C 282.354 471.683, 310.878 473.770, 332.750 485.562 L 341 490.010 341 467.045 L 341 444.080 334.296 442.010 C 330.609 440.871, 323.747 439.246, 319.046 438.399 C 307.260 436.275, 279.648 435.705, 269.466 437.377 M 447.522 488.245 C 436.391 496.492, 427.932 510.920, 424.532 527.458 C 421.579 541.824, 422.443 562.505, 426.602 577 C 430.289 589.853, 441.213 604.887, 450.803 610.307 L 454 612.113 454 548.057 C 454 512.825, 453.832 484, 453.626 484 C 453.420 484, 450.673 485.910, 447.522 488.245" stroke="none" fill="#0072c6" fill-rule="evenodd"/><path d="M 423 149.672 C 358.183 152.535, 301.077 161.671, 257.188 176.201 C 250.417 178.442, 245.242 180.616, 245.688 181.032 C 246.135 181.448, 252.125 183.615, 259 185.849 C 301.015 199.497, 350.148 207.501, 414 211.100 C 439.841 212.556, 502.787 211.708, 528 209.565 C 583.749 204.824, 635.251 194.986, 667.494 182.917 L 673.488 180.674 661.994 176.775 C 609.113 158.840, 532.581 148.645, 455 149.202 C 440.975 149.303, 426.575 149.515, 423 149.672" stroke="none" fill="#7fba00" fill-rule="evenodd"/><path d="M 418.500 49.995 C 325.650 54.599, 249.096 72.089, 211.111 97.377 C 195.509 107.764, 188.010 117.718, 187.184 129.137 C 186.378 140.272, 192.603 150.984, 205.634 160.883 C 214.304 167.469, 247.524 184.275, 245.546 181.074 C 245.258 180.608, 250.530 178.404, 257.261 176.176 C 306.912 159.740, 368.732 150.806, 443 149.332 C 524.877 147.708, 605.204 157.710, 660.952 176.469 L 674.405 180.996 684.413 176.508 C 699.628 169.685, 709.637 163.282, 718.034 155 C 727.391 145.772, 730.258 140.164, 730.304 131 C 730.495 93.072, 646.617 61.006, 522.277 51.471 C 498.373 49.637, 441.898 48.834, 418.500 49.995 M 497.768 211.725 C 499.565 211.947, 502.265 211.943, 503.768 211.715 C 505.271 211.486, 503.800 211.304, 500.500 211.310 C 497.200 211.315, 495.971 211.502, 497.768 211.725 M 448.250 212.746 C 453.613 212.925, 462.387 212.925, 467.750 212.746 C 473.113 212.566, 468.725 212.419, 458 212.419 C 447.275 212.419, 442.887 212.566, 448.250 212.746" stroke="none" fill="#b8d432" fill-rule="evenodd"/><path d="M 482.768 14.725 C 484.565 14.947, 487.265 14.943, 488.768 14.715 C 490.271 14.486, 488.800 14.304, 485.500 14.310 C 482.200 14.315, 480.971 14.502, 482.768 14.725 M 136.462 96.250 L 131.500 101.500 136.750 96.538 C 139.637 93.808, 142 91.446, 142 91.288 C 142 90.541, 141.074 91.372, 136.462 96.250 M 417.750 919.723 C 419.538 919.945, 422.462 919.945, 424.250 919.723 C 426.038 919.502, 424.575 919.320, 421 919.320 C 417.425 919.320, 415.962 919.502, 417.750 919.723" stroke="none" fill="#000000" fill-rule="evenodd"/><path d="M 458.250 14.716 C 459.762 14.945, 462.238 14.945, 463.750 14.716 C 465.262 14.487, 464.025 14.300, 461 14.300 C 457.975 14.300, 456.738 14.487, 458.250 14.716 M 137.462 96.250 L 132.500 101.500 137.750 96.538 C 140.637 93.808, 143 91.446, 143 91.288 C 143 90.541, 142.074 91.372, 137.462 96.250 M 779.462 180.250 L 774.500 185.500 779.750 180.538 C 784.628 175.926, 785.459 175, 784.712 175 C 784.554 175, 782.192 177.363, 779.462 180.250 M 479.750 212.723 C 481.538 212.945, 484.462 212.945, 486.250 212.723 C 488.038 212.502, 486.575 212.320, 483 212.320 C 479.425 212.320, 477.962 212.502, 479.750 212.723 M 502.768 260.725 C 504.565 260.947, 507.265 260.943, 508.768 260.715 C 510.271 260.486, 508.800 260.304, 505.500 260.310 C 502.200 260.315, 500.971 260.502, 502.768 260.725 M 450.750 261.747 C 457.488 261.920, 468.512 261.920, 475.250 261.747 C 481.988 261.574, 476.475 261.432, 463 261.432 C 449.525 261.432, 444.012 261.574, 450.750 261.747 M 475.250 436.728 C 477.313 436.944, 480.688 436.944, 482.750 436.728 C 484.813 436.513, 483.125 436.336, 479 436.336 C 474.875 436.336, 473.188 436.513, 475.250 436.728 M 666.244 528.250 L 666 617 706.250 616.762 L 746.500 616.524 706.755 616.250 L 667.011 615.977 666.750 527.739 L 666.489 439.500 666.244 528.250 M 339.500 466.595 C 339.500 478.918, 339.837 489, 340.250 489 C 340.663 489, 341 479.127, 341 467.059 C 341 454.991, 340.663 444.909, 340.250 444.655 C 339.837 444.400, 339.500 454.273, 339.500 466.595 M 402.462 466.250 L 397.500 471.500 402.750 466.538 C 405.637 463.808, 408 461.446, 408 461.288 C 408 460.541, 407.074 461.372, 402.462 466.250 M 473.750 617.723 C 475.538 617.945, 478.462 617.945, 480.250 617.723 C 482.038 617.502, 480.575 617.320, 477 617.320 C 473.425 617.320, 471.962 617.502, 473.750 617.723 M 649.750 655.750 C 667.488 655.903, 696.513 655.903, 714.250 655.750 C 731.988 655.596, 717.475 655.471, 682 655.471 C 646.525 655.471, 632.013 655.596, 649.750 655.750 M 575.860 707.235 C 577.144 708.873, 575.486 708.986, 546.360 709.250 L 515.500 709.530 546.750 709.765 C 564.188 709.896, 578 709.612, 578 709.122 C 578 708.640, 577.212 707.627, 576.250 706.872 C 574.667 705.631, 574.630 705.666, 575.860 707.235" stroke="none" fill="#e8efc1" fill-rule="evenodd"/><path d="M 481.250 919.716 C 482.762 919.945, 485.238 919.945, 486.750 919.716 C 488.262 919.487, 487.025 919.300, 484 919.300 C 480.975 919.300, 479.738 919.487, 481.250 919.716" stroke="none" fill="#147bc7" fill-rule="evenodd"/></svg>